<mxfile host="app.diagrams.net" modified="2024-05-25T02:53:52.125Z" agent="Mozilla/5.0 (Windows NT 10.0; Win64; x64) AppleWebKit/537.36 (KHTML, like Gecko) Chrome/125.0.0.0 Safari/537.36" etag="wcVSYRt3l4erDZsHgAC1" version="24.4.8" type="github">
  <diagram id="C5RBs43oDa-KdzZeNtuy" name="Page-1">
    <mxGraphModel dx="359" dy="507" grid="1" gridSize="10" guides="1" tooltips="1" connect="1" arrows="1" fold="1" page="1" pageScale="1" pageWidth="827" pageHeight="1169" math="0" shadow="0">
      <root>
        <mxCell id="WIyWlLk6GJQsqaUBKTNV-0" />
        <mxCell id="WIyWlLk6GJQsqaUBKTNV-1" parent="WIyWlLk6GJQsqaUBKTNV-0" />
        <mxCell id="o2KAQqYEVxBAyBSrjhWb-5" value="" style="edgeStyle=orthogonalEdgeStyle;rounded=0;orthogonalLoop=1;jettySize=auto;html=1;" edge="1" parent="WIyWlLk6GJQsqaUBKTNV-1" source="o2KAQqYEVxBAyBSrjhWb-2" target="o2KAQqYEVxBAyBSrjhWb-4">
          <mxGeometry relative="1" as="geometry" />
        </mxCell>
        <mxCell id="o2KAQqYEVxBAyBSrjhWb-2" value="Inicio" style="strokeWidth=2;html=1;shape=mxgraph.flowchart.start_1;whiteSpace=wrap;fontFamily=Georgia;fontSize=16;" vertex="1" parent="WIyWlLk6GJQsqaUBKTNV-1">
          <mxGeometry x="364" y="70" width="100" height="60" as="geometry" />
        </mxCell>
        <mxCell id="o2KAQqYEVxBAyBSrjhWb-7" value="" style="edgeStyle=orthogonalEdgeStyle;rounded=0;orthogonalLoop=1;jettySize=auto;html=1;" edge="1" parent="WIyWlLk6GJQsqaUBKTNV-1" source="o2KAQqYEVxBAyBSrjhWb-4" target="o2KAQqYEVxBAyBSrjhWb-6">
          <mxGeometry relative="1" as="geometry" />
        </mxCell>
        <mxCell id="o2KAQqYEVxBAyBSrjhWb-4" value="Pedir números 1 y 2" style="shape=parallelogram;perimeter=parallelogramPerimeter;whiteSpace=wrap;html=1;fixedSize=1;fontSize=16;fontFamily=Georgia;strokeWidth=2;" vertex="1" parent="WIyWlLk6GJQsqaUBKTNV-1">
          <mxGeometry x="318.75" y="180" width="190.5" height="60" as="geometry" />
        </mxCell>
        <mxCell id="o2KAQqYEVxBAyBSrjhWb-9" value="" style="edgeStyle=orthogonalEdgeStyle;rounded=0;orthogonalLoop=1;jettySize=auto;html=1;" edge="1" parent="WIyWlLk6GJQsqaUBKTNV-1" source="o2KAQqYEVxBAyBSrjhWb-6" target="o2KAQqYEVxBAyBSrjhWb-8">
          <mxGeometry relative="1" as="geometry" />
        </mxCell>
        <mxCell id="o2KAQqYEVxBAyBSrjhWb-6" value="Sumar número 1 + número 2" style="whiteSpace=wrap;html=1;fontSize=16;fontFamily=Georgia;strokeWidth=2;" vertex="1" parent="WIyWlLk6GJQsqaUBKTNV-1">
          <mxGeometry x="354" y="290" width="120" height="60" as="geometry" />
        </mxCell>
        <mxCell id="o2KAQqYEVxBAyBSrjhWb-11" value="" style="edgeStyle=orthogonalEdgeStyle;rounded=0;orthogonalLoop=1;jettySize=auto;html=1;" edge="1" parent="WIyWlLk6GJQsqaUBKTNV-1" source="o2KAQqYEVxBAyBSrjhWb-8" target="o2KAQqYEVxBAyBSrjhWb-10">
          <mxGeometry relative="1" as="geometry" />
        </mxCell>
        <mxCell id="o2KAQqYEVxBAyBSrjhWb-8" value="Mostrar resultado de la suma" style="shape=document;whiteSpace=wrap;html=1;boundedLbl=1;fontSize=16;fontFamily=Georgia;strokeWidth=2;" vertex="1" parent="WIyWlLk6GJQsqaUBKTNV-1">
          <mxGeometry x="354" y="400" width="120" height="100" as="geometry" />
        </mxCell>
        <mxCell id="o2KAQqYEVxBAyBSrjhWb-10" value="Fin" style="ellipse;whiteSpace=wrap;html=1;fontSize=16;fontFamily=Georgia;strokeWidth=2;" vertex="1" parent="WIyWlLk6GJQsqaUBKTNV-1">
          <mxGeometry x="374" y="550" width="80" height="80" as="geometry" />
        </mxCell>
      </root>
    </mxGraphModel>
  </diagram>
</mxfile>
